<svg xmlns="http://www.w3.org/2000/svg" width="31" height="31" viewBox="0 0 31 31"><g transform="translate(0.068)"><g transform="translate(3.932 12)" fill="none" stroke="#e9e9e9" stroke-width="2"><rect width="23" height="19" rx="3" stroke="none"/><rect x="1" y="1" width="21" height="17" rx="2" fill="none"/></g><g transform="translate(-0.068)" fill="none"><path d="M14.83.605a1,1,0,0,1,1.341,0l12.9,11.652A1,1,0,0,1,28.4,14H2.6a1,1,0,0,1-.67-1.742Z" stroke="none"/><path d="M 15.49999523162842 2.695046424865723 L 5.198083877563477 11.99999809265137 L 25.80190658569336 11.99999809265137 L 15.49999523162842 2.695046424865723 M 15.49999523162842 0.3475236892700195 C 15.73996257781982 0.3475236892700195 15.97992992401123 0.4334878921508789 16.17028045654297 0.6054182052612305 L 29.07123947143555 12.25789833068848 C 29.7507209777832 12.87161827087402 29.31657028198242 13.99999809265137 28.40094947814941 13.99999809265137 L 2.599039077758789 13.99999809265137 C 1.683429718017578 13.99999809265137 1.24928092956543 12.87161827087402 1.928749084472656 12.25789833068848 L 14.82971000671387 0.6054182052612305 C 15.02005958557129 0.4334878921508789 15.26002788543701 0.3475236892700195 15.49999523162842 0.3475236892700195 Z" stroke="none" fill="#e9e9e9"/></g></g></svg>