<svg xmlns="http://www.w3.org/2000/svg" width="36" height="16" viewBox="0 0 36 16"><g transform="translate(-8242.001 -857)"><g transform="translate(8278.001 857) rotate(90)" fill="none" stroke="#e9e9e9" stroke-width="2"><rect width="16" height="36" rx="3" stroke="none"/><rect x="1" y="1" width="14" height="34" rx="2" fill="none"/></g><rect width="2" height="2" transform="translate(8247 864)" fill="#e9e9e9"/><rect width="2" height="2" transform="translate(8247 861)" fill="#e9e9e9"/><rect width="2" height="2" transform="translate(8247 867)" fill="#e9e9e9"/><rect width="2" height="2" transform="translate(8251 864)" fill="#e9e9e9"/><rect width="2" height="2" transform="translate(8251 861)" fill="#e9e9e9"/><rect width="2" height="2" transform="translate(8251 867)" fill="#e9e9e9"/><rect width="2" height="2" transform="translate(8255 864)" fill="#e9e9e9"/><rect width="2" height="2" transform="translate(8255 861)" fill="#e9e9e9"/><rect width="2" height="2" transform="translate(8259 864)" fill="#e9e9e9"/><rect width="2" height="2" transform="translate(8259 861)" fill="#e9e9e9"/><rect width="2" height="2" transform="translate(8263 864)" fill="#e9e9e9"/><rect width="2" height="2" transform="translate(8263 861)" fill="#e9e9e9"/><rect width="2" height="2" transform="translate(8267 864)" fill="#e9e9e9"/><rect width="2" height="2" transform="translate(8267 861)" fill="#e9e9e9"/><rect width="2" height="2" transform="translate(8267 867)" fill="#e9e9e9"/><rect width="2" height="2" transform="translate(8271 864)" fill="#e9e9e9"/><rect width="2" height="2" transform="translate(8271 861)" fill="#e9e9e9"/><rect width="2" height="2" transform="translate(8271 867)" fill="#e9e9e9"/><rect width="10" height="2" transform="translate(8255 867)" fill="#e9e9e9"/></g></svg>