<svg xmlns="http://www.w3.org/2000/svg" width="31" height="31" viewBox="0 0 31 31">
  <g id="activehome" transform="translate(0.068)">
    <g id="Rectangle_26" data-name="Rectangle 26" transform="translate(3.932 12)" fill="none" stroke="#f7b103" stroke-width="2">
      <rect width="23" height="19" rx="3" stroke="none"/>
      <rect x="1" y="1" width="21" height="17" rx="2" fill="none"/>
    </g>
    <g id="Polygon_1" data-name="Polygon 1" transform="translate(-0.068)" fill="none">
      <path d="M14.83.605a1,1,0,0,1,1.341,0l12.9,11.652A1,1,0,0,1,28.4,14H2.6a1,1,0,0,1-.67-1.742Z" stroke="none"/>
      <path d="M 15.4999942779541 2.695039749145508 L 5.198091506958008 11.99999809265137 L 25.80191612243652 11.99999809265137 L 15.4999942779541 2.695039749145508 M 15.50000095367432 0.3475236892700195 C 15.73996829986572 0.3475236892700195 15.97993564605713 0.4334878921508789 16.17029190063477 0.6054182052612305 L 29.07124137878418 12.25789833068848 C 29.7507209777832 12.87161827087402 29.31657028198242 13.99999809265137 28.40096092224121 13.99999809265137 L 2.599040985107422 13.99999809265137 C 1.683431625366211 13.99999809265137 1.24928092956543 12.87161827087402 1.928760528564453 12.25789833068848 L 14.82971000671387 0.6054182052612305 C 15.0200662612915 0.4334878921508789 15.26003360748291 0.3475236892700195 15.50000095367432 0.3475236892700195 Z" stroke="none" fill="#f7b103"/>
    </g>
  </g>
</svg>
