<svg xmlns="http://www.w3.org/2000/svg" width="31" height="20" viewBox="0 0 31 20">
  <g id="contact" transform="translate(-0.182 0.25)">
    <g id="Rectangle_26" data-name="Rectangle 26" transform="translate(1.182 -0.25)" fill="none" stroke="#e9e9e9" stroke-width="2">
      <rect width="30" height="20" rx="3" stroke="none"/>
      <rect x="1" y="1" width="28" height="18" rx="2" fill="none"/>
    </g>
    <g id="Polygon_1" data-name="Polygon 1" transform="translate(31.182 14.75) rotate(180)" fill="none">
      <path d="M14.8.673a1,1,0,0,1,1.391,0L29.224,13.281a1,1,0,0,1-.7,1.719H2.471a1,1,0,0,1-.7-1.719Z" stroke="none"/>
      <path d="M 15.49999618530273 2.783177375793457 L 4.942626953125 12.99999618530273 L 26.05738258361816 12.99999618530273 L 15.49999618530273 2.783177375793457 M 15.50000095367432 0.3915929794311523 C 15.75078582763672 0.3915929794311523 16.00157165527344 0.4853906631469727 16.19542121887207 0.6729860305786133 L 29.22411155700684 13.28139591217041 C 29.87001037597656 13.90646553039551 29.42752075195313 14.99999618530273 28.52869033813477 14.99999618530273 L 2.471311569213867 14.99999618530273 C 1.572481155395508 14.99999618530273 1.12999153137207 13.90646553039551 1.775890350341797 13.28139591217041 L 14.80458068847656 0.6729860305786133 C 14.9984302520752 0.4853906631469727 15.24921607971191 0.3915929794311523 15.50000095367432 0.3915929794311523 Z" stroke="none" fill="#e9e9e9"/>
    </g>
  </g>
</svg>
